<?xml version="1.0" standalone="no"?>
<!DOCTYPE svg PUBLIC "-//W3C//DTD SVG 20010904//EN"
 "http://www.w3.org/TR/2001/REC-SVG-20010904/DTD/svg10.dtd">
<svg version="1.0" xmlns="http://www.w3.org/2000/svg"
 width="1600.000000pt" height="1600.000000pt" viewBox="0 0 1600.000000 1600.000000"
 preserveAspectRatio="xMidYMid meet">
<metadata>
Created by potrace 1.11, written by Peter Selinger 2001-2013
</metadata>
<g transform="translate(0.000000,1600.000000) scale(0.100000,-0.100000)"
fill="#000000" stroke="none">
<path d="M3627 9383 c-4 -1324 -7 -2947 -7 -3605 l0 -1198 85 0 85 0 1 1873
c1 1029 5 2580 8 3445 l6 1573 1150 -1920 c632 -1057 1152 -1921 1155 -1921 3
1 523 861 1155 1912 l1150 1912 3 -3472 2 -3472 85 0 85 0 0 1560 0 1559 1073
4 c1038 3 1076 4 1203 24 634 104 1107 375 1390 798 169 254 270 547 316 915
17 135 16 543 0 680 -30 241 -99 493 -186 675 -240 506 -712 861 -1328 999
-276 62 -218 60 -1483 63 l-1160 3 -1150 -1916 c-632 -1054 -1152 -1917 -1155
-1918 -3 -2 -521 859 -1151 1913 l-1147 1916 -89 3 -90 3 -6 -2408z m7083
2227 c631 -66 1126 -334 1411 -764 143 -217 229 -458 275 -771 22 -146 25
-549 6 -695 -115 -883 -624 -1396 -1537 -1552 -128 -22 -150 -22 -1204 -25
l-1074 -4 6 767 c4 422 7 1282 7 1911 l0 1143 1008 0 c590 0 1046 -4 1102 -10z"/>
</g>
</svg>
